<?xml version="1.0" encoding="utf-8"?>
<!-- Generator: Adobe Illustrator 26.5.0, SVG Export Plug-In . SVG Version: 6.00 Build 0)  -->
<svg version="1.1" id="Layer_1" xmlns="http://www.w3.org/2000/svg" xmlns:xlink="http://www.w3.org/1999/xlink" x="0px" y="0px"
	 viewBox="0 0 1366 768" style="enable-background:new 0 0 1366 768;" xml:space="preserve">
<style type="text/css">
	.st0{fill:none;stroke:#000000;stroke-miterlimit:10;}
	.st1{fill:#FFFFFF;stroke:#000000;stroke-miterlimit:10;}
	.st2{fill:#FFFFFF;}
	.st3{fill:none;}
</style>
<g>
	<path class="st0" d="M915.5,223"/>
	<path d="M915.5,223"/>
</g>
<g>
	<path class="st0" d="M893.5,222.5"/>
	<path d="M893.5,222.5"/>
</g>
<g>
	<path class="st0" d="M915.5,222.5"/>
	<path d="M915.5,222.5"/>
</g>
<path class="st1" d="M894.5,222.5"/>
<path class="st0" d="M936.5,222"/>
<path class="st0" d="M915.5,222.5"/>
<path class="st0" d="M872.5,221.5"/>
<path class="st0" d="M875.5,219"/>
<path class="st0" d="M917.5,223"/>
<path class="st0" d="M916.5,221.5"/>
<g>
	<path class="st0" d="M894.5,223"/>
	<path d="M894.5,223"/>
</g>
<g>
	<path class="st0" d="M872.5,222.5"/>
	<path d="M872.5,222.5"/>
</g>
<g>
	<path class="st0" d="M894.5,222.5"/>
	<path d="M894.5,222.5"/>
</g>
<path class="st1" d="M873.5,222.5"/>
<path class="st0" d="M915.5,222"/>
<path class="st0" d="M894.5,222.5"/>
<path class="st0" d="M851.5,221.5"/>
<path class="st0" d="M896.5,223"/>
<path class="st0" d="M895.5,221.5"/>
<g>
	<path d="M704.97,374.32v68.63c0,1.13-0.92,2.05-2.05,2.05h-9.2c-1.13,0-2.05-0.92-2.05-2.05l0-9.12c0-2.58-3.8-2.79-4.08-0.22
		l-1.03,9.56c-0.11,1.04-0.99,1.83-2.03,1.83h-5.77c-1.04,0-1.91-0.78-2.03-1.81l-1.31-11.23c-0.3-2.56-4.08-2.34-4.08,0.24l0,10.76
		c0,1.13-0.92,2.05-2.05,2.05h-9.21c-1.13,0-2.05-0.92-2.05-2.05v-68.63c0-1.13,0.92-2.05,2.05-2.05c1.13,3.41,4.33,5.72,7.92,5.72
		c3.59,0,6.8-2.32,7.92-5.72c0.86,0.57,1.93,1.01,2.03,1.79c0.51,3.97,1.03,8.53,1.57,13.67v0c0.28,2.43,3.82,2.4,4.07-0.03
		l1.4-13.6c0.11-1.04,0.99-1.84,2.04-1.84c1.15,3.42,4.37,5.74,7.98,5.72c3.58-0.01,6.78-2.32,7.92-5.72
		c0.29,0.14,0.68,0.36,1.08,0.72C704.52,373.48,704.81,373.99,704.97,374.32z"/>
	<path d="M726.29,374.32v54.08c0,1.13,0.92,2.05,2.05,2.05h5.16c1.13,0,2.05,0.92,2.05,2.05v10.46c0,1.13-0.92,2.05-2.05,2.05
		h-20.37c-1.13,0-2.05-0.92-2.05-2.05v-68.63c0-1.13,0.92-2.05,2.05-2.05h11.12C725.37,372.28,726.29,373.19,726.29,374.32z"/>
	<path d="M768.9,394.29h-10.04c-1.13,0-2.05-0.92-2.05-2.05v-3.34c0-2.52-0.18-4.12-0.54-4.81c-0.36-0.69-0.96-1.03-1.81-1.03
		c-0.92,0-1.61,0.46-2.08,1.39c-0.47,0.93-0.71,2.34-0.71,4.22c0,2.43,0.26,4.26,0.79,5.48c0.5,1.23,1.94,2.71,4.3,4.45
		c6.77,5,11.04,9.1,12.79,12.3c2.19,3.99,2.43,7.77,2.64,15.5c0.2,7.51-1.21,10.8-2.21,12.6c-1.09,1.95-2.42,4.36-4.91,5.04
		c-3.64,0.99-5.19-2.96-10.09-3.04c-5.01-0.07-6.68,3.99-10.09,2.65c-2.62-1.03-4.47-4.57-4.74-5.08c-0.38-0.71-0.68-1.46-0.92-2.25
		c-0.89-2.96-1.34-7.17-1.34-12.62v-2.72c0-1.13,0.92-2.05,2.05-2.05H750c1.13,0,2.05,0.92,2.05,2.05v6.8c0,2.72,0.2,4.48,0.6,5.25
		c0.4,0.78,1.1,1.17,2.11,1.17s1.76-0.49,2.26-1.48c0.49-0.99,0.74-2.46,0.74-4.4c0-4.28-0.47-7.08-1.41-8.4
		c-0.96-1.32-3.34-3.52-7.12-6.6c-3.78-3.11-6.29-5.38-7.52-6.78c-1.23-1.41-2.25-3.35-3.05-5.84c-0.81-2.49-1.21-5.66-1.21-9.52
		c0-5.57,0.57-9.64,1.72-12.22c1.14-2.58,2.99-4.59,5.55-6.04c1.9-1.08,5.81-3.38,9.25-2.18c3.23,1.13,2.43,4.07,6.04,6.25
		c3.96,2.4,7.06,0.13,9.59,2.13c1.59,1.25,3.03,4.24,1.36,12.29v0.83C770.26,392.92,769.58,393.6,768.9,394.29z"/>
</g>
<path class="st2" d="M657.11,374.35c0.01,3.17,0.81,6.33,2.32,9.11c1.47,2.72,3.59,5.06,5,7.81c2.28,4.48,2.48,9.96,0.54,14.6
	c-2.6,6.19-8.79,11-9.15,17.7c-0.26,4.87,2.69,9.26,5.51,13.24c1.02,1.44,2.43,3.05,4.17,2.76"/>
<path class="st2" d="M706.25,376.2c-1.17,1.91-2.34,3.82-3.52,5.73c-1.83,2.98-3.67,5.99-4.87,9.27c-1.2,3.28-1.74,6.9-0.88,10.29
	c0.96,3.81,3.54,6.96,5.88,10.12c3.05,4.11,5.93,8.87,5.49,13.97c-0.28,3.3-1.92,6.31-3.73,9.08c-1.3,1.99-2.7,3.91-4.2,5.75"/>
<path class="st2" d="M724.21,370.73c-3.12,3.68-6.29,7.44-8.19,11.88c-1.9,4.44-2.36,9.75-0.07,14c1.68,3.12,4.61,5.32,7.12,7.82
	c1.97,1.97,3.75,4.23,4.59,6.88c0.83,2.66,0.59,5.77-1.17,7.93c-1.48,1.82-3.79,2.75-5.5,4.35c-1.85,1.73-2.9,4.15-3.83,6.51
	c-0.76,1.93-1.5,4.03-1,6.04c0.6,2.42,2.84,4.08,5.11,5.12s4.75,1.7,6.76,3.18c1.63,1.19,2.88,2.89,3.54,4.8"/>
<path class="st3" d="M732.81,375.78c16.09,6.04,31.55,13.76,46.04,22.99"/>
<path class="st2" d="M735.35,376.89c13.03,7.86,25.87,16.02,38.51,24.49"/>
<path class="st2" d="M739.16,441.65c12.61-12.14,25.63-23.86,39.03-35.12"/>
<g>
</g>
<g>
</g>
<g>
</g>
<g>
</g>
<g>
</g>
<g>
</g>
<g>
</g>
<g>
</g>
<g>
</g>
<g>
</g>
<g>
</g>
<g>
</g>
<g>
</g>
<g>
</g>
<g>
</g>
</svg>
